<svg xmlns="http://www.w3.org/2000/svg" width="500" height="92.23" viewBox="0 203.885 500 92.23"><path fill="#818181" d="M42.518 228.039h-.188c-3.68-5.723-9.749-8.307-16.283-8.307C11.408 219.732 0 232.628 0 247.521c0 11.356 5.888 21.57 16.012 26.348 3.125 1.523 6.625 2.388 10.125 2.388 6.805 0 12.791-2.674 16.749-8.502l.18.195c-.458 9.171-6.534 16.516-15.645 16.516-5.16 0-9.2-1.817-12.61-5.918H.826c4.138 11.07 14.353 17.567 25.679 17.567 3.86 0 7.909-.856 11.499-2.486 11.694-5.055 16.388-16.133 16.388-28.833V221.55H42.518v6.489zm-14.999 36.568c-9.028 0-15.284-7.924-15.284-16.988 0-8.69 6.256-16.238 14.909-16.238 8.284 0 15.006 7.638 15.006 16.14-.001 8.69-5.709 17.086-14.631 17.086zm52.619-38.378h-.181v-4.679H68.722v52.987h12.243V244.75c0-7.736 3.132-12.415 11.138-12.7v-12.317c-6.077-.001-8.555 1.344-11.965 6.496zm21.856-10.695h12.243v-11.649h-12.243v11.649zm0 59.003h12.243V221.55h-12.243v52.987zm47.407-43.156c5.708 0 9.208 2.771 11.874 7.736h13.812c-3.778-11.739-13.714-19.385-25.686-19.385-14.901 0-27.053 12.603-27.053 28.074 0 15.555 12.055 28.45 27.151 28.45 12.055 0 21.533-7.354 25.588-19.002h-13.812c-2.576 4.297-6.346 7.354-11.318 7.354-9.118 0-15.367-7.45-15.367-16.613 0-9.066 5.701-16.614 14.811-16.614zm46.431-5.152h-.18v-4.679h-11.236v52.987h12.243V244.75c0-7.736 3.132-12.415 11.146-12.7v-12.317c-6.085-.001-8.571 1.344-11.973 6.496zm45.784-6.497c-15.472 0-26.88 12.603-26.88 28.45 0 15.757 11.694 28.074 26.97 28.074 10.86 0 21.349-7.638 24.669-18.431h-12.893c-2.479 4.679-6.804 6.782-11.776 6.782-5.062 0-9.666-2.674-12.422-7.062-.736-1.147-1.382-2.396-1.667-3.821h39.675c.466-2.104.735-4.297.735-6.399 0-15.366-11.504-27.593-26.411-27.593zm-14.36 23.779c1.742-7.548 6.992-12.129 14.45-12.129 7.451 0 12.603 4.484 13.805 12.129h-28.255zm91.303-15.277h-.181c-.466-.766-1.292-1.63-1.848-2.193-4.146-3.92-9.479-6.309-15.097-6.309-15.097 0-25.58 12.798-25.58 27.977 0 15.088 9.479 28.547 24.845 28.547 6.264 0 13.805-3.342 17.859-8.307v6.587h11.222V221.55h-11.222l.002 6.684zm-15.277 36.373c-8.742 0-15.187-7.45-15.187-16.328 0-9.065 6.067-16.899 15.187-16.899 9.013 0 14.899 7.45 14.899 16.516.002 9.075-5.796 16.711-14.899 16.711zm56.585-60.722h-12.242v17.665h-5.979v11.266h5.979v41.721h12.242v-41.721h7.359V221.55h-7.359v-17.665zm15.893 70.652h12.242V221.55H375.76v52.987zm0-59.003h12.242v-11.649H375.76v11.649zm42.915 41.152h-.271l-12.332-35.136h-13.265l20.624 52.987H423l20.714-52.987h-13.443l-11.596 35.136zm81.325-9.36c0-15.367-11.491-27.594-26.407-27.594-15.457 0-26.873 12.603-26.873 28.45 0 15.757 11.688 28.074 26.963 28.074 10.86 0 21.36-7.638 24.665-18.431h-12.889c-2.479 4.679-6.805 6.782-11.776 6.782-5.063 0-9.657-2.674-12.423-7.062-.734-1.147-1.382-2.396-1.667-3.821h39.671c.465-2.102.736-4.295.736-6.398zm-40.768-3.815c1.757-7.548 7-12.129 14.449-12.129 7.45 0 12.618 4.484 13.806 12.129h-28.255z"/></svg>