<?xml version="1.0" encoding="utf-8"?>
<!-- Generator: Adobe Illustrator 16.0.0, SVG Export Plug-In . SVG Version: 6.00 Build 0)  -->
<!DOCTYPE svg PUBLIC "-//W3C//DTD SVG 1.1//EN" "http://www.w3.org/Graphics/SVG/1.1/DTD/svg11.dtd">
<svg version="1.1" id="katman_1" xmlns="http://www.w3.org/2000/svg" xmlns:xlink="http://www.w3.org/1999/xlink" x="0px" y="0px"
	 width="500px" height="92.23px" viewBox="0 203.885 500 92.23" enable-background="new 0 203.885 500 92.23" xml:space="preserve">
<g id="gricreative">
	<g>
		<path fill="#818181" d="M42.518,228.039H42.33c-3.68-5.723-9.749-8.307-16.283-8.307C11.408,219.732,0,232.628,0,247.521
			c0,11.356,5.888,21.57,16.012,26.348c3.125,1.523,6.625,2.388,10.125,2.388c6.805,0,12.791-2.674,16.749-8.502l0.18,0.195
			c-0.458,9.171-6.534,16.516-15.645,16.516c-5.16,0-9.2-1.817-12.61-5.918H0.826c4.138,11.07,14.353,17.567,25.679,17.567
			c3.86,0,7.909-0.856,11.499-2.486c11.694-5.055,16.388-16.133,16.388-28.833V221.55H42.518V228.039z M27.519,264.607
			c-9.028,0-15.284-7.924-15.284-16.988c0-8.69,6.256-16.238,14.909-16.238c8.284,0,15.006,7.638,15.006,16.14
			C42.149,256.211,36.441,264.607,27.519,264.607z M80.138,226.229h-0.181v-4.679H68.722v52.987h12.243V244.75
			c0-7.736,3.132-12.415,11.138-12.7v-12.317C86.026,219.732,83.548,221.077,80.138,226.229z M101.994,215.534h12.243v-11.649
			h-12.243V215.534z M101.994,274.537h12.243V221.55h-12.243V274.537z M149.401,231.381c5.708,0,9.208,2.771,11.874,7.736h13.812
			c-3.778-11.739-13.714-19.385-25.686-19.385c-14.901,0-27.053,12.603-27.053,28.074c0,15.555,12.055,28.45,27.151,28.45
			c12.055,0,21.533-7.354,25.588-19.002h-13.812c-2.576,4.297-6.346,7.354-11.318,7.354c-9.118,0-15.367-7.45-15.367-16.613
			C134.59,238.929,140.291,231.381,149.401,231.381z M195.832,226.229h-0.18v-4.679h-11.236v52.987h12.243V244.75
			c0-7.736,3.132-12.415,11.146-12.7v-12.317C201.72,219.732,199.234,221.077,195.832,226.229z M241.616,219.732
			c-15.472,0-26.88,12.603-26.88,28.45c0,15.757,11.694,28.074,26.97,28.074c10.86,0,21.349-7.638,24.669-18.431h-12.893
			c-2.479,4.679-6.804,6.782-11.776,6.782c-5.062,0-9.666-2.674-12.422-7.062c-0.736-1.147-1.382-2.396-1.667-3.821h39.675
			c0.466-2.104,0.735-4.297,0.735-6.399C268.027,231.959,256.523,219.732,241.616,219.732z M227.256,243.511
			c1.742-7.548,6.992-12.129,14.45-12.129c7.451,0,12.603,4.484,13.805,12.129H227.256z M318.559,228.234h-0.181
			c-0.466-0.766-1.292-1.63-1.848-2.193c-4.146-3.92-9.479-6.309-15.097-6.309c-15.097,0-25.58,12.798-25.58,27.977
			c0,15.088,9.479,28.547,24.845,28.547c6.264,0,13.805-3.342,17.859-8.307v6.587h11.222V221.55h-11.222L318.559,228.234
			L318.559,228.234z M303.282,264.607c-8.742,0-15.187-7.45-15.187-16.328c0-9.065,6.067-16.899,15.187-16.899
			c9.013,0,14.899,7.45,14.899,16.516C318.183,256.971,312.385,264.607,303.282,264.607z M359.867,203.885h-12.242v17.665h-5.979
			v11.266h5.979v41.721h12.242v-41.721h7.359V221.55h-7.359V203.885z M375.76,274.537h12.242V221.55H375.76V274.537z
			 M375.76,215.534h12.242v-11.649H375.76V215.534z M418.675,256.686h-0.271l-12.332-35.136h-13.265l20.624,52.987H423
			l20.714-52.987h-13.443L418.675,256.686z M500,247.326c0-15.367-11.491-27.594-26.407-27.594
			c-15.457,0-26.873,12.603-26.873,28.45c0,15.757,11.688,28.074,26.963,28.074c10.86,0,21.36-7.638,24.665-18.431h-12.889
			c-2.479,4.679-6.805,6.782-11.776,6.782c-5.063,0-9.657-2.674-12.423-7.062c-0.734-1.147-1.382-2.396-1.667-3.821h39.671
			C499.729,251.622,500,249.429,500,247.326z M459.232,243.511c1.757-7.548,7-12.129,14.449-12.129
			c7.45,0,12.618,4.484,13.806,12.129H459.232z"/>
	</g>
</g>
</svg>
